<svg xmlns="http://www.w3.org/2000/svg" viewBox="0 0 1200 640" fill="none" aria-hidden="true">
  <defs>
    <linearGradient id="sky" x1="0" y1="0" x2="0" y2="1">
      <stop offset="0%" stop-color="#dbeafe"/>
      <stop offset="45%" stop-color="#f0f9ff"/>
      <stop offset="100%" stop-color="#f8fafc"/>
    </linearGradient>
    <linearGradient id="fade" x1="0" y1="0" x2="1" y2="0">
      <stop offset="0%" stop-color="#ffffff" stop-opacity="0.92"/>
      <stop offset="42%" stop-color="#ffffff" stop-opacity="0.55"/>
      <stop offset="100%" stop-color="#ffffff" stop-opacity="0.08"/>
    </linearGradient>
    <linearGradient id="pillar" x1="0" y1="0" x2="1" y2="1">
      <stop offset="0%" stop-color="#4a6fa5"/>
      <stop offset="100%" stop-color="#1e3a5f"/>
    </linearGradient>
    <linearGradient id="gold" x1="0" y1="0" x2="0" y2="1">
      <stop offset="0%" stop-color="#f0e4bc"/>
      <stop offset="100%" stop-color="#c5a028"/>
    </linearGradient>
    <filter id="soft" x="-20%" y="-20%" width="140%" height="140%">
      <feGaussianBlur stdDeviation="2"/>
    </filter>
  </defs>
  <rect width="1200" height="640" fill="url(#sky)"/>
  <ellipse cx="900" cy="120" rx="180" ry="80" fill="#ffffff" opacity="0.65"/>
  <g opacity="0.88" filter="url(#soft)">
    <rect x="180" y="360" width="840" height="18" rx="4" fill="#c5a028" opacity="0.45"/>
    <rect x="220" y="200" width="56" height="178" rx="3" fill="url(#pillar)"/>
    <rect x="310" y="165" width="62" height="213" rx="3" fill="url(#pillar)"/>
    <rect x="405" y="178" width="58" height="200" rx="3" fill="url(#pillar)"/>
    <rect x="500" y="138" width="68" height="240" rx="3" fill="url(#pillar)"/>
    <rect x="600" y="168" width="60" height="210" rx="3" fill="url(#pillar)"/>
    <rect x="695" y="188" width="56" height="190" rx="3" fill="url(#pillar)"/>
    <rect x="785" y="205" width="52" height="173" rx="3" fill="url(#pillar)"/>
    <rect x="870" y="220" width="48" height="158" rx="3" fill="url(#pillar)"/>
    <path d="M200 200 L600 95 L1000 200 V378 H200 Z" fill="#2a4a73" opacity="0.22"/>
    <path d="M520 95 Q600 58 680 95 L680 132 Q600 102 520 132 Z" fill="url(#gold)" opacity="0.9"/>
    <rect x="200" y="378" width="800" height="36" fill="#1e3a5f" opacity="0.35"/>
    <rect x="200" y="360" width="800" height="10" fill="#c5a028" opacity="0.7"/>
  </g>
  <rect width="1200" height="640" fill="url(#fade)"/>
  <ellipse cx="600" cy="560" rx="420" ry="48" fill="#1e3a5f" opacity="0.05"/>
</svg>
